<?xml version="1.0" encoding="UTF-8"?>
<svg xmlns="http://www.w3.org/2000/svg" xmlns:xlink="http://www.w3.org/1999/xlink" version="1.1" width="45px" height="45px" viewBox="0 0 45 45"><defs><rect id="r0" width="1" height="1" fill="#000000"/></defs><rect x="0" y="0" width="45" height="45" fill="#fefefe"/><use x="4" y="4" xlink:href="#r0"/><use x="5" y="4" xlink:href="#r0"/><use x="6" y="4" xlink:href="#r0"/><use x="7" y="4" xlink:href="#r0"/><use x="8" y="4" xlink:href="#r0"/><use x="9" y="4" xlink:href="#r0"/><use x="10" y="4" xlink:href="#r0"/><use x="13" y="4" xlink:href="#r0"/><use x="16" y="4" xlink:href="#r0"/><use x="18" y="4" xlink:href="#r0"/><use x="22" y="4" xlink:href="#r0"/><use x="25" y="4" xlink:href="#r0"/><use x="26" y="4" xlink:href="#r0"/><use x="28" y="4" xlink:href="#r0"/><use x="29" y="4" xlink:href="#r0"/><use x="31" y="4" xlink:href="#r0"/><use x="32" y="4" xlink:href="#r0"/><use x="34" y="4" xlink:href="#r0"/><use x="35" y="4" xlink:href="#r0"/><use x="36" y="4" xlink:href="#r0"/><use x="37" y="4" xlink:href="#r0"/><use x="38" y="4" xlink:href="#r0"/><use x="39" y="4" xlink:href="#r0"/><use x="40" y="4" xlink:href="#r0"/><use x="4" y="5" xlink:href="#r0"/><use x="10" y="5" xlink:href="#r0"/><use x="14" y="5" xlink:href="#r0"/><use x="15" y="5" xlink:href="#r0"/><use x="16" y="5" xlink:href="#r0"/><use x="17" y="5" xlink:href="#r0"/><use x="19" y="5" xlink:href="#r0"/><use x="21" y="5" xlink:href="#r0"/><use x="23" y="5" xlink:href="#r0"/><use x="25" y="5" xlink:href="#r0"/><use x="26" y="5" xlink:href="#r0"/><use x="27" y="5" xlink:href="#r0"/><use x="31" y="5" xlink:href="#r0"/><use x="32" y="5" xlink:href="#r0"/><use x="34" y="5" xlink:href="#r0"/><use x="40" y="5" xlink:href="#r0"/><use x="4" y="6" xlink:href="#r0"/><use x="6" y="6" xlink:href="#r0"/><use x="7" y="6" xlink:href="#r0"/><use x="8" y="6" xlink:href="#r0"/><use x="10" y="6" xlink:href="#r0"/><use x="12" y="6" xlink:href="#r0"/><use x="13" y="6" xlink:href="#r0"/><use x="14" y="6" xlink:href="#r0"/><use x="16" y="6" xlink:href="#r0"/><use x="20" y="6" xlink:href="#r0"/><use x="23" y="6" xlink:href="#r0"/><use x="24" y="6" xlink:href="#r0"/><use x="27" y="6" xlink:href="#r0"/><use x="28" y="6" xlink:href="#r0"/><use x="30" y="6" xlink:href="#r0"/><use x="34" y="6" xlink:href="#r0"/><use x="36" y="6" xlink:href="#r0"/><use x="37" y="6" xlink:href="#r0"/><use x="38" y="6" xlink:href="#r0"/><use x="40" y="6" xlink:href="#r0"/><use x="4" y="7" xlink:href="#r0"/><use x="6" y="7" xlink:href="#r0"/><use x="7" y="7" xlink:href="#r0"/><use x="8" y="7" xlink:href="#r0"/><use x="10" y="7" xlink:href="#r0"/><use x="13" y="7" xlink:href="#r0"/><use x="14" y="7" xlink:href="#r0"/><use x="15" y="7" xlink:href="#r0"/><use x="17" y="7" xlink:href="#r0"/><use x="18" y="7" xlink:href="#r0"/><use x="19" y="7" xlink:href="#r0"/><use x="21" y="7" xlink:href="#r0"/><use x="22" y="7" xlink:href="#r0"/><use x="24" y="7" xlink:href="#r0"/><use x="25" y="7" xlink:href="#r0"/><use x="29" y="7" xlink:href="#r0"/><use x="30" y="7" xlink:href="#r0"/><use x="31" y="7" xlink:href="#r0"/><use x="34" y="7" xlink:href="#r0"/><use x="36" y="7" xlink:href="#r0"/><use x="37" y="7" xlink:href="#r0"/><use x="38" y="7" xlink:href="#r0"/><use x="40" y="7" xlink:href="#r0"/><use x="4" y="8" xlink:href="#r0"/><use x="6" y="8" xlink:href="#r0"/><use x="7" y="8" xlink:href="#r0"/><use x="8" y="8" xlink:href="#r0"/><use x="10" y="8" xlink:href="#r0"/><use x="14" y="8" xlink:href="#r0"/><use x="17" y="8" xlink:href="#r0"/><use x="18" y="8" xlink:href="#r0"/><use x="19" y="8" xlink:href="#r0"/><use x="20" y="8" xlink:href="#r0"/><use x="21" y="8" xlink:href="#r0"/><use x="22" y="8" xlink:href="#r0"/><use x="25" y="8" xlink:href="#r0"/><use x="26" y="8" xlink:href="#r0"/><use x="28" y="8" xlink:href="#r0"/><use x="34" y="8" xlink:href="#r0"/><use x="36" y="8" xlink:href="#r0"/><use x="37" y="8" xlink:href="#r0"/><use x="38" y="8" xlink:href="#r0"/><use x="40" y="8" xlink:href="#r0"/><use x="4" y="9" xlink:href="#r0"/><use x="10" y="9" xlink:href="#r0"/><use x="13" y="9" xlink:href="#r0"/><use x="17" y="9" xlink:href="#r0"/><use x="18" y="9" xlink:href="#r0"/><use x="19" y="9" xlink:href="#r0"/><use x="22" y="9" xlink:href="#r0"/><use x="23" y="9" xlink:href="#r0"/><use x="27" y="9" xlink:href="#r0"/><use x="28" y="9" xlink:href="#r0"/><use x="31" y="9" xlink:href="#r0"/><use x="34" y="9" xlink:href="#r0"/><use x="40" y="9" xlink:href="#r0"/><use x="4" y="10" xlink:href="#r0"/><use x="5" y="10" xlink:href="#r0"/><use x="6" y="10" xlink:href="#r0"/><use x="7" y="10" xlink:href="#r0"/><use x="8" y="10" xlink:href="#r0"/><use x="9" y="10" xlink:href="#r0"/><use x="10" y="10" xlink:href="#r0"/><use x="12" y="10" xlink:href="#r0"/><use x="14" y="10" xlink:href="#r0"/><use x="16" y="10" xlink:href="#r0"/><use x="18" y="10" xlink:href="#r0"/><use x="20" y="10" xlink:href="#r0"/><use x="22" y="10" xlink:href="#r0"/><use x="24" y="10" xlink:href="#r0"/><use x="26" y="10" xlink:href="#r0"/><use x="28" y="10" xlink:href="#r0"/><use x="30" y="10" xlink:href="#r0"/><use x="32" y="10" xlink:href="#r0"/><use x="34" y="10" xlink:href="#r0"/><use x="35" y="10" xlink:href="#r0"/><use x="36" y="10" xlink:href="#r0"/><use x="37" y="10" xlink:href="#r0"/><use x="38" y="10" xlink:href="#r0"/><use x="39" y="10" xlink:href="#r0"/><use x="40" y="10" xlink:href="#r0"/><use x="12" y="11" xlink:href="#r0"/><use x="13" y="11" xlink:href="#r0"/><use x="14" y="11" xlink:href="#r0"/><use x="16" y="11" xlink:href="#r0"/><use x="17" y="11" xlink:href="#r0"/><use x="20" y="11" xlink:href="#r0"/><use x="21" y="11" xlink:href="#r0"/><use x="23" y="11" xlink:href="#r0"/><use x="25" y="11" xlink:href="#r0"/><use x="27" y="11" xlink:href="#r0"/><use x="28" y="11" xlink:href="#r0"/><use x="29" y="11" xlink:href="#r0"/><use x="31" y="11" xlink:href="#r0"/><use x="32" y="11" xlink:href="#r0"/><use x="4" y="12" xlink:href="#r0"/><use x="5" y="12" xlink:href="#r0"/><use x="6" y="12" xlink:href="#r0"/><use x="8" y="12" xlink:href="#r0"/><use x="9" y="12" xlink:href="#r0"/><use x="10" y="12" xlink:href="#r0"/><use x="11" y="12" xlink:href="#r0"/><use x="12" y="12" xlink:href="#r0"/><use x="14" y="12" xlink:href="#r0"/><use x="15" y="12" xlink:href="#r0"/><use x="19" y="12" xlink:href="#r0"/><use x="20" y="12" xlink:href="#r0"/><use x="24" y="12" xlink:href="#r0"/><use x="27" y="12" xlink:href="#r0"/><use x="28" y="12" xlink:href="#r0"/><use x="33" y="12" xlink:href="#r0"/><use x="34" y="12" xlink:href="#r0"/><use x="38" y="12" xlink:href="#r0"/><use x="5" y="13" xlink:href="#r0"/><use x="6" y="13" xlink:href="#r0"/><use x="8" y="13" xlink:href="#r0"/><use x="9" y="13" xlink:href="#r0"/><use x="13" y="13" xlink:href="#r0"/><use x="14" y="13" xlink:href="#r0"/><use x="15" y="13" xlink:href="#r0"/><use x="17" y="13" xlink:href="#r0"/><use x="18" y="13" xlink:href="#r0"/><use x="19" y="13" xlink:href="#r0"/><use x="20" y="13" xlink:href="#r0"/><use x="25" y="13" xlink:href="#r0"/><use x="27" y="13" xlink:href="#r0"/><use x="29" y="13" xlink:href="#r0"/><use x="30" y="13" xlink:href="#r0"/><use x="31" y="13" xlink:href="#r0"/><use x="32" y="13" xlink:href="#r0"/><use x="33" y="13" xlink:href="#r0"/><use x="35" y="13" xlink:href="#r0"/><use x="37" y="13" xlink:href="#r0"/><use x="8" y="14" xlink:href="#r0"/><use x="9" y="14" xlink:href="#r0"/><use x="10" y="14" xlink:href="#r0"/><use x="12" y="14" xlink:href="#r0"/><use x="14" y="14" xlink:href="#r0"/><use x="21" y="14" xlink:href="#r0"/><use x="22" y="14" xlink:href="#r0"/><use x="32" y="14" xlink:href="#r0"/><use x="33" y="14" xlink:href="#r0"/><use x="37" y="14" xlink:href="#r0"/><use x="39" y="14" xlink:href="#r0"/><use x="40" y="14" xlink:href="#r0"/><use x="8" y="15" xlink:href="#r0"/><use x="9" y="15" xlink:href="#r0"/><use x="11" y="15" xlink:href="#r0"/><use x="15" y="15" xlink:href="#r0"/><use x="17" y="15" xlink:href="#r0"/><use x="19" y="15" xlink:href="#r0"/><use x="20" y="15" xlink:href="#r0"/><use x="21" y="15" xlink:href="#r0"/><use x="23" y="15" xlink:href="#r0"/><use x="25" y="15" xlink:href="#r0"/><use x="26" y="15" xlink:href="#r0"/><use x="28" y="15" xlink:href="#r0"/><use x="29" y="15" xlink:href="#r0"/><use x="30" y="15" xlink:href="#r0"/><use x="32" y="15" xlink:href="#r0"/><use x="35" y="15" xlink:href="#r0"/><use x="36" y="15" xlink:href="#r0"/><use x="37" y="15" xlink:href="#r0"/><use x="40" y="15" xlink:href="#r0"/><use x="4" y="16" xlink:href="#r0"/><use x="5" y="16" xlink:href="#r0"/><use x="8" y="16" xlink:href="#r0"/><use x="9" y="16" xlink:href="#r0"/><use x="10" y="16" xlink:href="#r0"/><use x="11" y="16" xlink:href="#r0"/><use x="13" y="16" xlink:href="#r0"/><use x="14" y="16" xlink:href="#r0"/><use x="16" y="16" xlink:href="#r0"/><use x="20" y="16" xlink:href="#r0"/><use x="23" y="16" xlink:href="#r0"/><use x="27" y="16" xlink:href="#r0"/><use x="28" y="16" xlink:href="#r0"/><use x="31" y="16" xlink:href="#r0"/><use x="32" y="16" xlink:href="#r0"/><use x="34" y="16" xlink:href="#r0"/><use x="35" y="16" xlink:href="#r0"/><use x="39" y="16" xlink:href="#r0"/><use x="4" y="17" xlink:href="#r0"/><use x="5" y="17" xlink:href="#r0"/><use x="7" y="17" xlink:href="#r0"/><use x="11" y="17" xlink:href="#r0"/><use x="12" y="17" xlink:href="#r0"/><use x="15" y="17" xlink:href="#r0"/><use x="16" y="17" xlink:href="#r0"/><use x="17" y="17" xlink:href="#r0"/><use x="18" y="17" xlink:href="#r0"/><use x="19" y="17" xlink:href="#r0"/><use x="20" y="17" xlink:href="#r0"/><use x="21" y="17" xlink:href="#r0"/><use x="23" y="17" xlink:href="#r0"/><use x="24" y="17" xlink:href="#r0"/><use x="26" y="17" xlink:href="#r0"/><use x="27" y="17" xlink:href="#r0"/><use x="28" y="17" xlink:href="#r0"/><use x="29" y="17" xlink:href="#r0"/><use x="31" y="17" xlink:href="#r0"/><use x="32" y="17" xlink:href="#r0"/><use x="33" y="17" xlink:href="#r0"/><use x="35" y="17" xlink:href="#r0"/><use x="37" y="17" xlink:href="#r0"/><use x="39" y="17" xlink:href="#r0"/><use x="4" y="18" xlink:href="#r0"/><use x="5" y="18" xlink:href="#r0"/><use x="8" y="18" xlink:href="#r0"/><use x="9" y="18" xlink:href="#r0"/><use x="10" y="18" xlink:href="#r0"/><use x="11" y="18" xlink:href="#r0"/><use x="14" y="18" xlink:href="#r0"/><use x="15" y="18" xlink:href="#r0"/><use x="16" y="18" xlink:href="#r0"/><use x="20" y="18" xlink:href="#r0"/><use x="22" y="18" xlink:href="#r0"/><use x="24" y="18" xlink:href="#r0"/><use x="26" y="18" xlink:href="#r0"/><use x="28" y="18" xlink:href="#r0"/><use x="29" y="18" xlink:href="#r0"/><use x="30" y="18" xlink:href="#r0"/><use x="36" y="18" xlink:href="#r0"/><use x="38" y="18" xlink:href="#r0"/><use x="39" y="18" xlink:href="#r0"/><use x="40" y="18" xlink:href="#r0"/><use x="5" y="19" xlink:href="#r0"/><use x="8" y="19" xlink:href="#r0"/><use x="9" y="19" xlink:href="#r0"/><use x="11" y="19" xlink:href="#r0"/><use x="12" y="19" xlink:href="#r0"/><use x="13" y="19" xlink:href="#r0"/><use x="16" y="19" xlink:href="#r0"/><use x="17" y="19" xlink:href="#r0"/><use x="18" y="19" xlink:href="#r0"/><use x="19" y="19" xlink:href="#r0"/><use x="21" y="19" xlink:href="#r0"/><use x="22" y="19" xlink:href="#r0"/><use x="23" y="19" xlink:href="#r0"/><use x="25" y="19" xlink:href="#r0"/><use x="27" y="19" xlink:href="#r0"/><use x="28" y="19" xlink:href="#r0"/><use x="29" y="19" xlink:href="#r0"/><use x="31" y="19" xlink:href="#r0"/><use x="33" y="19" xlink:href="#r0"/><use x="34" y="19" xlink:href="#r0"/><use x="35" y="19" xlink:href="#r0"/><use x="40" y="19" xlink:href="#r0"/><use x="4" y="20" xlink:href="#r0"/><use x="6" y="20" xlink:href="#r0"/><use x="10" y="20" xlink:href="#r0"/><use x="12" y="20" xlink:href="#r0"/><use x="13" y="20" xlink:href="#r0"/><use x="14" y="20" xlink:href="#r0"/><use x="15" y="20" xlink:href="#r0"/><use x="20" y="20" xlink:href="#r0"/><use x="24" y="20" xlink:href="#r0"/><use x="27" y="20" xlink:href="#r0"/><use x="28" y="20" xlink:href="#r0"/><use x="32" y="20" xlink:href="#r0"/><use x="33" y="20" xlink:href="#r0"/><use x="34" y="20" xlink:href="#r0"/><use x="38" y="20" xlink:href="#r0"/><use x="40" y="20" xlink:href="#r0"/><use x="8" y="21" xlink:href="#r0"/><use x="9" y="21" xlink:href="#r0"/><use x="11" y="21" xlink:href="#r0"/><use x="12" y="21" xlink:href="#r0"/><use x="13" y="21" xlink:href="#r0"/><use x="14" y="21" xlink:href="#r0"/><use x="15" y="21" xlink:href="#r0"/><use x="17" y="21" xlink:href="#r0"/><use x="18" y="21" xlink:href="#r0"/><use x="21" y="21" xlink:href="#r0"/><use x="22" y="21" xlink:href="#r0"/><use x="25" y="21" xlink:href="#r0"/><use x="27" y="21" xlink:href="#r0"/><use x="28" y="21" xlink:href="#r0"/><use x="29" y="21" xlink:href="#r0"/><use x="31" y="21" xlink:href="#r0"/><use x="32" y="21" xlink:href="#r0"/><use x="35" y="21" xlink:href="#r0"/><use x="37" y="21" xlink:href="#r0"/><use x="4" y="22" xlink:href="#r0"/><use x="6" y="22" xlink:href="#r0"/><use x="7" y="22" xlink:href="#r0"/><use x="8" y="22" xlink:href="#r0"/><use x="9" y="22" xlink:href="#r0"/><use x="10" y="22" xlink:href="#r0"/><use x="11" y="22" xlink:href="#r0"/><use x="12" y="22" xlink:href="#r0"/><use x="13" y="22" xlink:href="#r0"/><use x="14" y="22" xlink:href="#r0"/><use x="17" y="22" xlink:href="#r0"/><use x="18" y="22" xlink:href="#r0"/><use x="21" y="22" xlink:href="#r0"/><use x="22" y="22" xlink:href="#r0"/><use x="25" y="22" xlink:href="#r0"/><use x="26" y="22" xlink:href="#r0"/><use x="28" y="22" xlink:href="#r0"/><use x="32" y="22" xlink:href="#r0"/><use x="34" y="22" xlink:href="#r0"/><use x="35" y="22" xlink:href="#r0"/><use x="37" y="22" xlink:href="#r0"/><use x="38" y="22" xlink:href="#r0"/><use x="39" y="22" xlink:href="#r0"/><use x="40" y="22" xlink:href="#r0"/><use x="11" y="23" xlink:href="#r0"/><use x="14" y="23" xlink:href="#r0"/><use x="15" y="23" xlink:href="#r0"/><use x="17" y="23" xlink:href="#r0"/><use x="21" y="23" xlink:href="#r0"/><use x="22" y="23" xlink:href="#r0"/><use x="25" y="23" xlink:href="#r0"/><use x="26" y="23" xlink:href="#r0"/><use x="29" y="23" xlink:href="#r0"/><use x="30" y="23" xlink:href="#r0"/><use x="31" y="23" xlink:href="#r0"/><use x="33" y="23" xlink:href="#r0"/><use x="35" y="23" xlink:href="#r0"/><use x="39" y="23" xlink:href="#r0"/><use x="40" y="23" xlink:href="#r0"/><use x="4" y="24" xlink:href="#r0"/><use x="5" y="24" xlink:href="#r0"/><use x="6" y="24" xlink:href="#r0"/><use x="7" y="24" xlink:href="#r0"/><use x="10" y="24" xlink:href="#r0"/><use x="13" y="24" xlink:href="#r0"/><use x="16" y="24" xlink:href="#r0"/><use x="22" y="24" xlink:href="#r0"/><use x="33" y="24" xlink:href="#r0"/><use x="34" y="24" xlink:href="#r0"/><use x="35" y="24" xlink:href="#r0"/><use x="36" y="24" xlink:href="#r0"/><use x="37" y="24" xlink:href="#r0"/><use x="38" y="24" xlink:href="#r0"/><use x="40" y="24" xlink:href="#r0"/><use x="4" y="25" xlink:href="#r0"/><use x="6" y="25" xlink:href="#r0"/><use x="7" y="25" xlink:href="#r0"/><use x="8" y="25" xlink:href="#r0"/><use x="9" y="25" xlink:href="#r0"/><use x="12" y="25" xlink:href="#r0"/><use x="13" y="25" xlink:href="#r0"/><use x="14" y="25" xlink:href="#r0"/><use x="15" y="25" xlink:href="#r0"/><use x="16" y="25" xlink:href="#r0"/><use x="17" y="25" xlink:href="#r0"/><use x="19" y="25" xlink:href="#r0"/><use x="20" y="25" xlink:href="#r0"/><use x="23" y="25" xlink:href="#r0"/><use x="24" y="25" xlink:href="#r0"/><use x="25" y="25" xlink:href="#r0"/><use x="27" y="25" xlink:href="#r0"/><use x="28" y="25" xlink:href="#r0"/><use x="31" y="25" xlink:href="#r0"/><use x="32" y="25" xlink:href="#r0"/><use x="33" y="25" xlink:href="#r0"/><use x="37" y="25" xlink:href="#r0"/><use x="4" y="26" xlink:href="#r0"/><use x="5" y="26" xlink:href="#r0"/><use x="8" y="26" xlink:href="#r0"/><use x="10" y="26" xlink:href="#r0"/><use x="11" y="26" xlink:href="#r0"/><use x="13" y="26" xlink:href="#r0"/><use x="15" y="26" xlink:href="#r0"/><use x="16" y="26" xlink:href="#r0"/><use x="18" y="26" xlink:href="#r0"/><use x="21" y="26" xlink:href="#r0"/><use x="22" y="26" xlink:href="#r0"/><use x="26" y="26" xlink:href="#r0"/><use x="29" y="26" xlink:href="#r0"/><use x="34" y="26" xlink:href="#r0"/><use x="35" y="26" xlink:href="#r0"/><use x="38" y="26" xlink:href="#r0"/><use x="39" y="26" xlink:href="#r0"/><use x="40" y="26" xlink:href="#r0"/><use x="6" y="27" xlink:href="#r0"/><use x="8" y="27" xlink:href="#r0"/><use x="11" y="27" xlink:href="#r0"/><use x="12" y="27" xlink:href="#r0"/><use x="13" y="27" xlink:href="#r0"/><use x="16" y="27" xlink:href="#r0"/><use x="17" y="27" xlink:href="#r0"/><use x="18" y="27" xlink:href="#r0"/><use x="20" y="27" xlink:href="#r0"/><use x="21" y="27" xlink:href="#r0"/><use x="23" y="27" xlink:href="#r0"/><use x="24" y="27" xlink:href="#r0"/><use x="25" y="27" xlink:href="#r0"/><use x="26" y="27" xlink:href="#r0"/><use x="27" y="27" xlink:href="#r0"/><use x="29" y="27" xlink:href="#r0"/><use x="31" y="27" xlink:href="#r0"/><use x="36" y="27" xlink:href="#r0"/><use x="4" y="28" xlink:href="#r0"/><use x="6" y="28" xlink:href="#r0"/><use x="9" y="28" xlink:href="#r0"/><use x="10" y="28" xlink:href="#r0"/><use x="11" y="28" xlink:href="#r0"/><use x="12" y="28" xlink:href="#r0"/><use x="14" y="28" xlink:href="#r0"/><use x="15" y="28" xlink:href="#r0"/><use x="18" y="28" xlink:href="#r0"/><use x="19" y="28" xlink:href="#r0"/><use x="20" y="28" xlink:href="#r0"/><use x="24" y="28" xlink:href="#r0"/><use x="28" y="28" xlink:href="#r0"/><use x="29" y="28" xlink:href="#r0"/><use x="30" y="28" xlink:href="#r0"/><use x="31" y="28" xlink:href="#r0"/><use x="32" y="28" xlink:href="#r0"/><use x="33" y="28" xlink:href="#r0"/><use x="34" y="28" xlink:href="#r0"/><use x="36" y="28" xlink:href="#r0"/><use x="37" y="28" xlink:href="#r0"/><use x="38" y="28" xlink:href="#r0"/><use x="39" y="28" xlink:href="#r0"/><use x="40" y="28" xlink:href="#r0"/><use x="5" y="29" xlink:href="#r0"/><use x="6" y="29" xlink:href="#r0"/><use x="7" y="29" xlink:href="#r0"/><use x="12" y="29" xlink:href="#r0"/><use x="13" y="29" xlink:href="#r0"/><use x="15" y="29" xlink:href="#r0"/><use x="19" y="29" xlink:href="#r0"/><use x="20" y="29" xlink:href="#r0"/><use x="21" y="29" xlink:href="#r0"/><use x="22" y="29" xlink:href="#r0"/><use x="23" y="29" xlink:href="#r0"/><use x="24" y="29" xlink:href="#r0"/><use x="25" y="29" xlink:href="#r0"/><use x="26" y="29" xlink:href="#r0"/><use x="27" y="29" xlink:href="#r0"/><use x="28" y="29" xlink:href="#r0"/><use x="29" y="29" xlink:href="#r0"/><use x="31" y="29" xlink:href="#r0"/><use x="32" y="29" xlink:href="#r0"/><use x="37" y="29" xlink:href="#r0"/><use x="4" y="30" xlink:href="#r0"/><use x="6" y="30" xlink:href="#r0"/><use x="8" y="30" xlink:href="#r0"/><use x="10" y="30" xlink:href="#r0"/><use x="11" y="30" xlink:href="#r0"/><use x="12" y="30" xlink:href="#r0"/><use x="14" y="30" xlink:href="#r0"/><use x="17" y="30" xlink:href="#r0"/><use x="20" y="30" xlink:href="#r0"/><use x="24" y="30" xlink:href="#r0"/><use x="25" y="30" xlink:href="#r0"/><use x="30" y="30" xlink:href="#r0"/><use x="34" y="30" xlink:href="#r0"/><use x="36" y="30" xlink:href="#r0"/><use x="39" y="30" xlink:href="#r0"/><use x="40" y="30" xlink:href="#r0"/><use x="5" y="31" xlink:href="#r0"/><use x="7" y="31" xlink:href="#r0"/><use x="9" y="31" xlink:href="#r0"/><use x="13" y="31" xlink:href="#r0"/><use x="14" y="31" xlink:href="#r0"/><use x="15" y="31" xlink:href="#r0"/><use x="21" y="31" xlink:href="#r0"/><use x="24" y="31" xlink:href="#r0"/><use x="25" y="31" xlink:href="#r0"/><use x="29" y="31" xlink:href="#r0"/><use x="33" y="31" xlink:href="#r0"/><use x="34" y="31" xlink:href="#r0"/><use x="40" y="31" xlink:href="#r0"/><use x="4" y="32" xlink:href="#r0"/><use x="10" y="32" xlink:href="#r0"/><use x="11" y="32" xlink:href="#r0"/><use x="13" y="32" xlink:href="#r0"/><use x="16" y="32" xlink:href="#r0"/><use x="19" y="32" xlink:href="#r0"/><use x="20" y="32" xlink:href="#r0"/><use x="23" y="32" xlink:href="#r0"/><use x="24" y="32" xlink:href="#r0"/><use x="28" y="32" xlink:href="#r0"/><use x="32" y="32" xlink:href="#r0"/><use x="33" y="32" xlink:href="#r0"/><use x="34" y="32" xlink:href="#r0"/><use x="35" y="32" xlink:href="#r0"/><use x="36" y="32" xlink:href="#r0"/><use x="38" y="32" xlink:href="#r0"/><use x="40" y="32" xlink:href="#r0"/><use x="12" y="33" xlink:href="#r0"/><use x="13" y="33" xlink:href="#r0"/><use x="15" y="33" xlink:href="#r0"/><use x="16" y="33" xlink:href="#r0"/><use x="17" y="33" xlink:href="#r0"/><use x="19" y="33" xlink:href="#r0"/><use x="20" y="33" xlink:href="#r0"/><use x="21" y="33" xlink:href="#r0"/><use x="22" y="33" xlink:href="#r0"/><use x="23" y="33" xlink:href="#r0"/><use x="24" y="33" xlink:href="#r0"/><use x="25" y="33" xlink:href="#r0"/><use x="27" y="33" xlink:href="#r0"/><use x="28" y="33" xlink:href="#r0"/><use x="29" y="33" xlink:href="#r0"/><use x="31" y="33" xlink:href="#r0"/><use x="32" y="33" xlink:href="#r0"/><use x="36" y="33" xlink:href="#r0"/><use x="38" y="33" xlink:href="#r0"/><use x="39" y="33" xlink:href="#r0"/><use x="4" y="34" xlink:href="#r0"/><use x="5" y="34" xlink:href="#r0"/><use x="6" y="34" xlink:href="#r0"/><use x="7" y="34" xlink:href="#r0"/><use x="8" y="34" xlink:href="#r0"/><use x="9" y="34" xlink:href="#r0"/><use x="10" y="34" xlink:href="#r0"/><use x="12" y="34" xlink:href="#r0"/><use x="15" y="34" xlink:href="#r0"/><use x="16" y="34" xlink:href="#r0"/><use x="18" y="34" xlink:href="#r0"/><use x="21" y="34" xlink:href="#r0"/><use x="22" y="34" xlink:href="#r0"/><use x="26" y="34" xlink:href="#r0"/><use x="28" y="34" xlink:href="#r0"/><use x="29" y="34" xlink:href="#r0"/><use x="32" y="34" xlink:href="#r0"/><use x="34" y="34" xlink:href="#r0"/><use x="36" y="34" xlink:href="#r0"/><use x="37" y="34" xlink:href="#r0"/><use x="39" y="34" xlink:href="#r0"/><use x="40" y="34" xlink:href="#r0"/><use x="4" y="35" xlink:href="#r0"/><use x="10" y="35" xlink:href="#r0"/><use x="12" y="35" xlink:href="#r0"/><use x="14" y="35" xlink:href="#r0"/><use x="16" y="35" xlink:href="#r0"/><use x="17" y="35" xlink:href="#r0"/><use x="18" y="35" xlink:href="#r0"/><use x="19" y="35" xlink:href="#r0"/><use x="21" y="35" xlink:href="#r0"/><use x="24" y="35" xlink:href="#r0"/><use x="25" y="35" xlink:href="#r0"/><use x="26" y="35" xlink:href="#r0"/><use x="28" y="35" xlink:href="#r0"/><use x="29" y="35" xlink:href="#r0"/><use x="30" y="35" xlink:href="#r0"/><use x="32" y="35" xlink:href="#r0"/><use x="36" y="35" xlink:href="#r0"/><use x="39" y="35" xlink:href="#r0"/><use x="4" y="36" xlink:href="#r0"/><use x="6" y="36" xlink:href="#r0"/><use x="7" y="36" xlink:href="#r0"/><use x="8" y="36" xlink:href="#r0"/><use x="10" y="36" xlink:href="#r0"/><use x="12" y="36" xlink:href="#r0"/><use x="13" y="36" xlink:href="#r0"/><use x="15" y="36" xlink:href="#r0"/><use x="18" y="36" xlink:href="#r0"/><use x="20" y="36" xlink:href="#r0"/><use x="23" y="36" xlink:href="#r0"/><use x="24" y="36" xlink:href="#r0"/><use x="27" y="36" xlink:href="#r0"/><use x="28" y="36" xlink:href="#r0"/><use x="32" y="36" xlink:href="#r0"/><use x="33" y="36" xlink:href="#r0"/><use x="34" y="36" xlink:href="#r0"/><use x="35" y="36" xlink:href="#r0"/><use x="36" y="36" xlink:href="#r0"/><use x="38" y="36" xlink:href="#r0"/><use x="39" y="36" xlink:href="#r0"/><use x="4" y="37" xlink:href="#r0"/><use x="6" y="37" xlink:href="#r0"/><use x="7" y="37" xlink:href="#r0"/><use x="8" y="37" xlink:href="#r0"/><use x="10" y="37" xlink:href="#r0"/><use x="14" y="37" xlink:href="#r0"/><use x="15" y="37" xlink:href="#r0"/><use x="18" y="37" xlink:href="#r0"/><use x="19" y="37" xlink:href="#r0"/><use x="20" y="37" xlink:href="#r0"/><use x="21" y="37" xlink:href="#r0"/><use x="23" y="37" xlink:href="#r0"/><use x="24" y="37" xlink:href="#r0"/><use x="25" y="37" xlink:href="#r0"/><use x="27" y="37" xlink:href="#r0"/><use x="28" y="37" xlink:href="#r0"/><use x="35" y="37" xlink:href="#r0"/><use x="37" y="37" xlink:href="#r0"/><use x="4" y="38" xlink:href="#r0"/><use x="6" y="38" xlink:href="#r0"/><use x="7" y="38" xlink:href="#r0"/><use x="8" y="38" xlink:href="#r0"/><use x="10" y="38" xlink:href="#r0"/><use x="12" y="38" xlink:href="#r0"/><use x="14" y="38" xlink:href="#r0"/><use x="17" y="38" xlink:href="#r0"/><use x="20" y="38" xlink:href="#r0"/><use x="22" y="38" xlink:href="#r0"/><use x="25" y="38" xlink:href="#r0"/><use x="26" y="38" xlink:href="#r0"/><use x="30" y="38" xlink:href="#r0"/><use x="33" y="38" xlink:href="#r0"/><use x="34" y="38" xlink:href="#r0"/><use x="35" y="38" xlink:href="#r0"/><use x="36" y="38" xlink:href="#r0"/><use x="39" y="38" xlink:href="#r0"/><use x="40" y="38" xlink:href="#r0"/><use x="4" y="39" xlink:href="#r0"/><use x="10" y="39" xlink:href="#r0"/><use x="12" y="39" xlink:href="#r0"/><use x="13" y="39" xlink:href="#r0"/><use x="15" y="39" xlink:href="#r0"/><use x="21" y="39" xlink:href="#r0"/><use x="22" y="39" xlink:href="#r0"/><use x="23" y="39" xlink:href="#r0"/><use x="25" y="39" xlink:href="#r0"/><use x="26" y="39" xlink:href="#r0"/><use x="27" y="39" xlink:href="#r0"/><use x="29" y="39" xlink:href="#r0"/><use x="30" y="39" xlink:href="#r0"/><use x="31" y="39" xlink:href="#r0"/><use x="39" y="39" xlink:href="#r0"/><use x="4" y="40" xlink:href="#r0"/><use x="5" y="40" xlink:href="#r0"/><use x="6" y="40" xlink:href="#r0"/><use x="7" y="40" xlink:href="#r0"/><use x="8" y="40" xlink:href="#r0"/><use x="9" y="40" xlink:href="#r0"/><use x="10" y="40" xlink:href="#r0"/><use x="12" y="40" xlink:href="#r0"/><use x="16" y="40" xlink:href="#r0"/><use x="20" y="40" xlink:href="#r0"/><use x="23" y="40" xlink:href="#r0"/><use x="24" y="40" xlink:href="#r0"/><use x="28" y="40" xlink:href="#r0"/><use x="31" y="40" xlink:href="#r0"/><use x="32" y="40" xlink:href="#r0"/><use x="34" y="40" xlink:href="#r0"/><use x="36" y="40" xlink:href="#r0"/><use x="38" y="40" xlink:href="#r0"/><use x="39" y="40" xlink:href="#r0"/><use x="40" y="40" xlink:href="#r0"/></svg>
