<?xml version="1.0" encoding="utf-8"?>
<!-- Generator: Adobe Illustrator 22.0.1, SVG Export Plug-In . SVG Version: 6.00 Build 0)  -->
<svg version="1.1" id="Capa_1" xmlns="http://www.w3.org/2000/svg" xmlns:xlink="http://www.w3.org/1999/xlink" x="0px" y="0px"
	 viewBox="0 0 179 69" style="enable-background:new 0 0 179 69;" xml:space="preserve">
<style type="text/css">
	.st0{fill:#FFFFFF;}
	.st1{enable-background:new    ;}
</style>
<title>Group Copy@1x</title>
<desc>Created with Sketch.</desc>
<g id="Diseño">
	<g id="Group-Copy">
		<g id="Group-6">
			<g id="Shape">
				<path class="st0" d="M82.8,67.2c-2.7,0.8-5.3,1.1-8.6,1.1c-6.9,0-12.4-3.5-12.4-10.7c0-6.7,5.8-10.1,12.4-10.1
					c3.9,0,5.8,0.3,7.7,0.7v5.4c-1.1-0.6-3.2-1.1-5.5-1.1c-3.9,0-6.6,1.9-6.6,5.6c0,2.8,1.2,5.2,4.3,5.2c0.6,0,1.2,0,1.7-0.2V56h6.8
					"/>
			</g>
			<g id="Shape_1_">
				<polyline class="st0" points="32,47.9 43.7,47.9 46.4,58.9 46.5,58.9 49.2,47.9 60.9,47.9 60.9,67.9 53.8,67.9 53.7,52.2 
					53.6,52.2 49.5,67.9 42.9,67.9 39,52.2 38.8,52.2 38.8,67.9 32,67.9 				"/>
			</g>
			<g id="Shape_2_">
				<polyline class="st0" points="0.8,47.9 12.5,47.9 15.2,58.9 15.3,58.9 18,47.9 29.7,47.9 29.7,67.9 22.5,67.9 22.4,52.2 
					22.4,52.2 18.3,67.9 11.7,67.9 7.7,52.2 7.6,52.2 7.5,67.9 0.8,67.9 				"/>
			</g>
			<g id="Shape_3_">
				<polyline class="st0" points="56.9,37.8 54.8,45.1 51.6,45.1 55.5,30.2 54.5,24.3 48.7,45.1 28.6,45.1 26.5,37.8 25.2,45.1 
					22,45.1 24.4,30 22.8,24.3 19.2,45.1 0.6,45.1 8.5,0.2 31.2,0.1 38.7,30.2 40.1,24.5 34.8,3.3 38.2,3.3 41.8,17.8 46.3,0.2 
					68.8,0.2 76.7,45.1 58.2,45.1 				"/>
			</g>
			<g id="Shape_4_">
				<polyline class="st0" points="83,45.1 79.4,45.1 72.2,3.3 75.7,3.3 				"/>
			</g>
		</g>
		<g id="Group-5" transform="translate(93.000000, 43.000000)">
			<g id="Shape_5_">
				<path class="st0" d="M7.1,14v-3.3v-2C7,9,6.7,9.7,6.5,10.2l-1.8,4l-1.8-4C2.7,9.7,2.4,9,2.3,8.7v2V14H0.5V5h1.7l1.9,4.1
					c0.2,0.5,0.5,1.2,0.6,1.5c0.1-0.3,0.4-1,0.6-1.5L7.1,5h1.8v9"/>
			</g>
			<g id="Rectangle-path">
				<rect x="10.3" y="4.9" class="st0" width="1.8" height="9"/>
			</g>
			<g id="Shape_6_">
				<path class="st0" d="M19.3,14L16,9c-0.2-0.3-0.5-0.8-0.6-1v2v4h-1.8V5h1.7l3.2,4.8c0.2,0.3,0.5,0.8,0.6,1v-2V5h1.8v9"/>
			</g>
			<g id="Shape_7_">
				<polyline class="st0" points="22.4,14 22.4,4.9 28.7,4.9 28.7,6.7 24.2,6.7 24.2,8.3 26.8,8.3 26.8,10 24.2,10 24.2,12.2 
					28.9,12.2 28.9,14 				"/>
			</g>
			<g id="Shape_8_">
				<path class="st0" d="M35.1,14l-1.6-3.3h-1.8V14h-1.8V5h4.2c1.7,0,3.1,0.9,3.1,2.9c0,1.4-0.6,2.2-1.7,2.7l1.7,3.5 M34,6.7h-2.4V9
					H34c0.8,0,1.3-0.4,1.3-1.2S34.8,6.7,34,6.7"/>
			</g>
			<g id="Shape_9_">
				<path class="st0" d="M56.6,10.9h-2v3.2h-1.8v-9h4c1.7,0,3.1,0.9,3.1,2.9S58.5,10.9,56.6,10.9 M56.7,6.8h-2.1v2.3h2.1
					c0.8,0,1.3-0.4,1.3-1.2C58,7.2,57.5,6.8,56.7,6.8"/>
			</g>
			<g id="Shape_10_">
				<path class="st0" d="M73.7,14.1l-1.6-3.3h-1.8v3.3h-1.8v-9h4.2c1.7,0,3.1,0.9,3.1,2.9c0,1.4-0.6,2.2-1.7,2.7l1.7,3.5 M72.7,6.8
					h-2.4v2.3h2.4c0.8,0,1.3-0.4,1.3-1.2S73.5,6.8,72.7,6.8"/>
			</g>
			<g class="st1">
				<path class="st0" d="M37.8,4.4l0.8-1.8h1.9l-1.7,1.8H37.8z M38,14V5h1.8v9H38z"/>
				<path class="st0" d="M49.7,14h-2l-0.8-2h-3.6l-0.7,2h-1.9l3.5-9H46L49.7,14z M46.3,10.4l-1.2-3.3l-1.2,3.3H46.3z"/>
			</g>
			<g class="st1">
				<path class="st0" d="M68.1,14.1h-2l-0.8-2.1h-3.6l-0.8,2.1h-2L62.5,5h1.9L68.1,14.1z M64.7,10.5l-1.3-3.4l-1.2,3.4H64.7z"/>
			</g>
			<g class="st1">
				<path class="st0" d="M85.6,14.1h-2L82.8,12h-3.6l-0.7,2.1h-1.9L80.1,5H82L85.6,14.1z M82.3,10.5L81,7.2l-1.2,3.4H82.3z"/>
			</g>
		</g>
		<g id="Group-7" transform="translate(93.000000, 58.000000)">
			<g id="Shape_11_">
				<path class="st0" d="M80.1,10.1c-2.5,0-3.9-1.9-3.9-4.7c0-2.7,1.5-4.7,3.9-4.7c2.5,0,3.9,1.9,3.9,4.7S82.5,10.1,80.1,10.1
					 M80.1,2.6c-1.5,0-2.1,1.3-2.1,2.9s0.6,2.9,2.1,2.9s2.1-1.3,2.1-2.9C82.1,3.9,81.5,2.6,80.1,2.6"/>
			</g>
			<g id="Shape_12_">
				<path class="st0" d="M22.1,6.8h-2V10h-1.8V1h4c1.7,0,3.1,0.9,3.1,2.9S24,6.8,22.1,6.8 M22.2,2.7h-2.1V5h2.1
					c0.8,0,1.3-0.4,1.3-1.2S23,2.7,22.2,2.7"/>
			</g>
			<g id="Shape_13_">
				<path class="st0" d="M31.7,10l-1.6-3.3h-1.8V10h-1.8V1h4.2c1.7,0,3.1,0.9,3.1,2.9c0,1.4-0.6,2.2-1.7,2.7l1.7,3.5 M30.6,2.7h-2.4
					V5h2.4c0.8,0,1.3-0.4,1.3-1.2S31.4,2.7,30.6,2.7"/>
			</g>
			<g id="Shape_14_">
				<path class="st0" d="M38.5,10.1c-2.5,0-3.9-1.9-3.9-4.7s1.5-4.7,3.9-4.7c2.5,0,3.9,1.9,3.9,4.7S40.9,10.1,38.5,10.1 M38.5,2.6
					c-1.5,0-2.1,1.3-2.1,2.9s0.6,2.9,2.1,2.9s2.1-1.3,2.1-2.9C40.5,3.8,39.9,2.6,38.5,2.6"/>
			</g>
			<g id="Shape_15_">
				<path class="st0" d="M47.2,10.1c-2.4,0-4-1.8-4-4.7c0-2.8,1.7-4.7,4-4.7C49,0.7,50,1.6,50.6,3l-1.7,0.7
					c-0.3-0.7-0.7-1.2-1.7-1.2c-1.4,0-2.1,1.2-2.1,2.9s0.8,2.9,2.1,2.9c1.2,0,1.7-0.6,1.8-1.4h-1.4V5.2h3.2v1.2
					C50.9,8.8,49.3,10.1,47.2,10.1"/>
			</g>
			<g id="Shape_16_">
				<path class="st0" d="M57.3,10l-1.6-3.3h-1.8V10h-1.8V1h4.2c1.7,0,3.1,0.9,3.1,2.9c0,1.4-0.6,2.2-1.7,2.7l1.7,3.5 M56.3,2.7h-2.4
					V5h2.4c0.8,0,1.3-0.4,1.3-1.2C57.5,3,57.1,2.7,56.3,2.7"/>
			</g>
			<g id="Shape_17_">
				<polyline class="st0" points="60.7,10 60.7,0.9 67,0.9 67,2.7 62.5,2.7 62.5,4.2 65.1,4.2 65.1,6 62.5,6 62.5,8.2 67.2,8.2 
					67.2,10 				"/>
			</g>
			<g id="Shape_18_">
				<path class="st0" d="M71.4,10.1c-1.5,0-2.8-0.6-3.5-1.6l1.3-1.2c0.6,0.7,1.4,1,2.3,1c1.1,0,1.6-0.3,1.6-1c0-0.6-0.3-0.8-2-1.2
					c-1.7-0.4-2.8-0.9-2.8-2.7c0-1.6,1.4-2.6,3.2-2.6c1.4,0,2.4,0.5,3.3,1.4l-1.3,1.3c-0.6-0.6-1.2-0.9-2.1-0.9
					c-1,0-1.3,0.4-1.3,0.8c0,0.6,0.4,0.7,1.8,1.1c1.4,0.3,3,0.8,3,2.8C75,8.9,73.9,10.1,71.4,10.1"/>
			</g>
			<g id="Shape_19_">
				<polyline class="st0" points="0.7,10 0.7,0.9 6.9,0.9 6.9,2.7 2.5,2.7 2.5,4.2 5.1,4.2 5.1,6 2.5,6 2.5,8.2 7.1,8.2 7.1,10 				
					"/>
			</g>
			<g id="Shape_20_">
				<polyline class="st0" points="8.6,10 8.6,0.9 10.4,0.9 10.4,2.7 10.4,2.7 10.4,4.2 10.4,4.2 10.4,6 10.4,6 10.4,8.2 15,8.2 
					15,10 				"/>
			</g>
		</g>
	</g>
</g>
</svg>
